<svg width="98" height="98" viewBox="0 0 98 98" fill="none" xmlns="http://www.w3.org/2000/svg">
<path fill-rule="evenodd" clip-rule="evenodd" d="M49 0C22.2549 0 0.592621 22.375 0.592621 50C0.592621 72.125 14.4492 90.8125 33.6912 97.4375C36.1115 97.875 37.0192 96.375 37.0192 95.0625C37.0192 93.875 36.9587 89.9375 36.9587 85.75C24.7963 88.0625 21.6498 82.6875 20.6817 79.875C20.1371 78.4375 17.7772 74 15.7199 72.8125C14.0257 71.875 11.6053 69.5625 15.6594 69.5C19.4715 69.4375 22.1944 73.125 23.1021 74.625C27.4587 82.1875 34.4173 80.0625 37.2007 78.75C37.6243 75.5 38.895 73.3125 40.2867 72.0625C29.516 70.8125 18.2613 66.5 18.2613 47.375C18.2613 41.9375 20.1371 37.4375 23.2231 33.9375C22.739 32.6875 21.0447 27.5625 23.7071 20.6875C23.7071 20.6875 27.7613 19.375 37.0192 25.8125C40.8918 24.6875 45.0064 24.125 49.121 24.125C53.2357 24.125 57.3503 24.6875 61.2229 25.8125C70.4808 19.3125 74.5349 20.6875 74.5349 20.6875C77.1973 27.5625 75.503 32.6875 75.019 33.9375C78.1049 37.4375 79.9807 41.875 79.9807 47.375C79.9807 66.5625 68.6655 70.8125 57.8949 72.0625C59.6496 73.625 61.1624 76.625 61.1624 81.3125C61.1624 88 61.1018 93.375 61.1018 95.0625C61.1018 96.375 62.0095 97.9375 64.4299 97.4375C74.0396 94.0866 82.3901 87.7074 88.3058 79.1976C94.2216 70.6879 97.4048 60.4763 97.4074 50C97.4074 22.375 75.7451 0 49 0Z" fill="#F4F4F5"/>
</svg>
